<mxfile host="app.diagrams.net" modified="2023-11-17T17:39:42.918Z" agent="Mozilla/5.0 (Windows NT 10.0; Win64; x64) AppleWebKit/537.36 (KHTML, like Gecko) Chrome/119.0.0.0 Safari/537.36 Edg/119.0.0.0" etag="SQvbG4mjsGkHjrL6j38n" version="22.1.2" type="device">
  <diagram id="C5RBs43oDa-KdzZeNtuy" name="Page-1">
    <mxGraphModel dx="4217" dy="1709" grid="1" gridSize="10" guides="1" tooltips="1" connect="1" arrows="1" fold="1" page="1" pageScale="1" pageWidth="1100" pageHeight="1700" math="0" shadow="0">
      <root>
        <mxCell id="WIyWlLk6GJQsqaUBKTNV-0" />
        <mxCell id="WIyWlLk6GJQsqaUBKTNV-1" parent="WIyWlLk6GJQsqaUBKTNV-0" />
        <mxCell id="nRXvXKjofSJJ8LNJtBbq-34" style="edgeStyle=orthogonalEdgeStyle;rounded=0;orthogonalLoop=1;jettySize=auto;html=1;entryX=0.5;entryY=0;entryDx=0;entryDy=0;fillColor=#d5e8d4;strokeColor=#82b366;" parent="WIyWlLk6GJQsqaUBKTNV-1" source="nRXvXKjofSJJ8LNJtBbq-10" target="nRXvXKjofSJJ8LNJtBbq-13" edge="1">
          <mxGeometry relative="1" as="geometry" />
        </mxCell>
        <mxCell id="nRXvXKjofSJJ8LNJtBbq-63" style="edgeStyle=orthogonalEdgeStyle;rounded=0;orthogonalLoop=1;jettySize=auto;html=1;entryX=0.5;entryY=0;entryDx=0;entryDy=0;exitX=1;exitY=0.5;exitDx=0;exitDy=0;fillColor=#d5e8d4;strokeColor=#82b366;" parent="WIyWlLk6GJQsqaUBKTNV-1" source="nRXvXKjofSJJ8LNJtBbq-10" target="nRXvXKjofSJJ8LNJtBbq-16" edge="1">
          <mxGeometry relative="1" as="geometry">
            <mxPoint x="1070" y="320" as="sourcePoint" />
          </mxGeometry>
        </mxCell>
        <mxCell id="nRXvXKjofSJJ8LNJtBbq-10" value="Is price action trending or chopping?" style="rounded=1;whiteSpace=wrap;html=1;fillColor=#d5e8d4;strokeColor=#82b366;" parent="WIyWlLk6GJQsqaUBKTNV-1" vertex="1">
          <mxGeometry x="850" y="280" width="140" height="80" as="geometry" />
        </mxCell>
        <mxCell id="nRXvXKjofSJJ8LNJtBbq-33" style="edgeStyle=orthogonalEdgeStyle;rounded=0;orthogonalLoop=1;jettySize=auto;html=1;entryX=0.5;entryY=0;entryDx=0;entryDy=0;fillColor=#d5e8d4;strokeColor=#82b366;" parent="WIyWlLk6GJQsqaUBKTNV-1" source="nRXvXKjofSJJ8LNJtBbq-13" target="nRXvXKjofSJJ8LNJtBbq-32" edge="1">
          <mxGeometry relative="1" as="geometry">
            <mxPoint x="595" y="472.5" as="sourcePoint" />
          </mxGeometry>
        </mxCell>
        <mxCell id="nRXvXKjofSJJ8LNJtBbq-50" style="edgeStyle=orthogonalEdgeStyle;rounded=0;orthogonalLoop=1;jettySize=auto;html=1;exitX=0;exitY=0.5;exitDx=0;exitDy=0;fillColor=#d5e8d4;strokeColor=#82b366;" parent="WIyWlLk6GJQsqaUBKTNV-1" source="nRXvXKjofSJJ8LNJtBbq-13" target="nRXvXKjofSJJ8LNJtBbq-35" edge="1">
          <mxGeometry relative="1" as="geometry">
            <mxPoint x="240" y="467.5" as="sourcePoint" />
          </mxGeometry>
        </mxCell>
        <mxCell id="nRXvXKjofSJJ8LNJtBbq-13" value="Are you buying with the trend?" style="rounded=1;whiteSpace=wrap;html=1;fillColor=#d5e8d4;strokeColor=#82b366;" parent="WIyWlLk6GJQsqaUBKTNV-1" vertex="1">
          <mxGeometry x="370" y="443" width="120" height="50" as="geometry" />
        </mxCell>
        <mxCell id="nRXvXKjofSJJ8LNJtBbq-14" value="trending" style="text;html=1;align=center;verticalAlign=middle;resizable=0;points=[];autosize=1;" parent="WIyWlLk6GJQsqaUBKTNV-1" vertex="1">
          <mxGeometry x="650" y="290" width="70" height="30" as="geometry" />
        </mxCell>
        <mxCell id="nRXvXKjofSJJ8LNJtBbq-24" style="edgeStyle=orthogonalEdgeStyle;rounded=0;orthogonalLoop=1;jettySize=auto;html=1;entryX=0.5;entryY=0;entryDx=0;entryDy=0;exitX=1;exitY=0.5;exitDx=0;exitDy=0;fillColor=#d5e8d4;strokeColor=#82b366;" parent="WIyWlLk6GJQsqaUBKTNV-1" source="nRXvXKjofSJJ8LNJtBbq-16" target="nRXvXKjofSJJ8LNJtBbq-22" edge="1">
          <mxGeometry relative="1" as="geometry">
            <mxPoint x="1570" y="461.5800000000001" as="sourcePoint" />
          </mxGeometry>
        </mxCell>
        <mxCell id="nRXvXKjofSJJ8LNJtBbq-65" style="edgeStyle=orthogonalEdgeStyle;rounded=0;orthogonalLoop=1;jettySize=auto;html=1;entryX=0.5;entryY=0;entryDx=0;entryDy=0;fillColor=#d5e8d4;strokeColor=#82b366;" parent="WIyWlLk6GJQsqaUBKTNV-1" source="nRXvXKjofSJJ8LNJtBbq-16" target="nRXvXKjofSJJ8LNJtBbq-19" edge="1">
          <mxGeometry relative="1" as="geometry" />
        </mxCell>
        <mxCell id="nRXvXKjofSJJ8LNJtBbq-16" value="Are you buying the bottom?" style="rounded=1;whiteSpace=wrap;html=1;fillColor=#d5e8d4;strokeColor=#82b366;" parent="WIyWlLk6GJQsqaUBKTNV-1" vertex="1">
          <mxGeometry x="1355" y="443" width="100" height="60" as="geometry" />
        </mxCell>
        <mxCell id="nRXvXKjofSJJ8LNJtBbq-18" value="chopping" style="text;html=1;align=center;verticalAlign=middle;resizable=0;points=[];autosize=1;" parent="WIyWlLk6GJQsqaUBKTNV-1" vertex="1">
          <mxGeometry x="1120" y="290" width="70" height="30" as="geometry" />
        </mxCell>
        <mxCell id="nRXvXKjofSJJ8LNJtBbq-61" style="edgeStyle=orthogonalEdgeStyle;rounded=0;orthogonalLoop=1;jettySize=auto;html=1;fillColor=#d5e8d4;strokeColor=#82b366;" parent="WIyWlLk6GJQsqaUBKTNV-1" source="nRXvXKjofSJJ8LNJtBbq-19" edge="1">
          <mxGeometry relative="1" as="geometry">
            <mxPoint x="1010" y="831.25" as="targetPoint" />
          </mxGeometry>
        </mxCell>
        <mxCell id="nRXvXKjofSJJ8LNJtBbq-19" value="Are you selling the top?" style="rounded=1;whiteSpace=wrap;html=1;fillColor=#d5e8d4;strokeColor=#82b366;" parent="WIyWlLk6GJQsqaUBKTNV-1" vertex="1">
          <mxGeometry x="1070" y="659.5" width="90" height="40" as="geometry" />
        </mxCell>
        <mxCell id="nRXvXKjofSJJ8LNJtBbq-21" value="no" style="text;html=1;align=center;verticalAlign=middle;resizable=0;points=[];autosize=1;" parent="WIyWlLk6GJQsqaUBKTNV-1" vertex="1">
          <mxGeometry x="1205" y="445.5" width="40" height="30" as="geometry" />
        </mxCell>
        <mxCell id="nRXvXKjofSJJ8LNJtBbq-111" style="edgeStyle=orthogonalEdgeStyle;rounded=0;orthogonalLoop=1;jettySize=auto;html=1;fillColor=#d5e8d4;strokeColor=#82b366;" parent="WIyWlLk6GJQsqaUBKTNV-1" source="nRXvXKjofSJJ8LNJtBbq-22" target="nRXvXKjofSJJ8LNJtBbq-105" edge="1">
          <mxGeometry relative="1" as="geometry" />
        </mxCell>
        <mxCell id="nRXvXKjofSJJ8LNJtBbq-22" value="Is there a failed breakout?" style="rounded=1;whiteSpace=wrap;html=1;fillColor=#d5e8d4;strokeColor=#82b366;" parent="WIyWlLk6GJQsqaUBKTNV-1" vertex="1">
          <mxGeometry x="1760" y="645.8" width="90" height="40" as="geometry" />
        </mxCell>
        <mxCell id="nRXvXKjofSJJ8LNJtBbq-25" value="yes" style="text;html=1;align=center;verticalAlign=middle;resizable=0;points=[];autosize=1;" parent="WIyWlLk6GJQsqaUBKTNV-1" vertex="1">
          <mxGeometry x="1810" y="434.05" width="40" height="30" as="geometry" />
        </mxCell>
        <mxCell id="nRXvXKjofSJJ8LNJtBbq-103" style="edgeStyle=orthogonalEdgeStyle;rounded=0;orthogonalLoop=1;jettySize=auto;html=1;entryX=0.5;entryY=0;entryDx=0;entryDy=0;fillColor=#d5e8d4;strokeColor=#82b366;" parent="WIyWlLk6GJQsqaUBKTNV-1" source="nRXvXKjofSJJ8LNJtBbq-26" target="nRXvXKjofSJJ8LNJtBbq-102" edge="1">
          <mxGeometry relative="1" as="geometry" />
        </mxCell>
        <mxCell id="nRXvXKjofSJJ8LNJtBbq-113" style="edgeStyle=orthogonalEdgeStyle;rounded=0;orthogonalLoop=1;jettySize=auto;html=1;fillColor=#d5e8d4;strokeColor=#82b366;" parent="WIyWlLk6GJQsqaUBKTNV-1" source="nRXvXKjofSJJ8LNJtBbq-26" target="nRXvXKjofSJJ8LNJtBbq-112" edge="1">
          <mxGeometry relative="1" as="geometry" />
        </mxCell>
        <mxCell id="nRXvXKjofSJJ8LNJtBbq-26" value="Does delta confirm this bias?" style="rounded=1;whiteSpace=wrap;html=1;fillColor=#d5e8d4;strokeColor=#82b366;" parent="WIyWlLk6GJQsqaUBKTNV-1" vertex="1">
          <mxGeometry x="1640" y="818.7299999999999" width="100" height="44.13" as="geometry" />
        </mxCell>
        <mxCell id="nRXvXKjofSJJ8LNJtBbq-29" value="You cannot place a trade." style="rounded=1;whiteSpace=wrap;html=1;fillColor=#d5e8d4;strokeColor=#82b366;" parent="WIyWlLk6GJQsqaUBKTNV-1" vertex="1">
          <mxGeometry x="2205" y="950.4300000000001" width="110" height="49.13" as="geometry" />
        </mxCell>
        <mxCell id="nRXvXKjofSJJ8LNJtBbq-30" value="yes" style="text;html=1;align=center;verticalAlign=middle;resizable=0;points=[];autosize=1;" parent="WIyWlLk6GJQsqaUBKTNV-1" vertex="1">
          <mxGeometry x="1640" y="635.8" width="40" height="30" as="geometry" />
        </mxCell>
        <mxCell id="nRXvXKjofSJJ8LNJtBbq-32" value="Is delta confirming a long bias?" style="rounded=1;whiteSpace=wrap;html=1;fillColor=#d5e8d4;strokeColor=#82b366;" parent="WIyWlLk6GJQsqaUBKTNV-1" vertex="1">
          <mxGeometry x="635" y="653.75" width="110" height="37.5" as="geometry" />
        </mxCell>
        <mxCell id="nRXvXKjofSJJ8LNJtBbq-67" style="edgeStyle=orthogonalEdgeStyle;rounded=0;orthogonalLoop=1;jettySize=auto;html=1;entryX=0.5;entryY=0;entryDx=0;entryDy=0;fillColor=#d5e8d4;strokeColor=#82b366;" parent="WIyWlLk6GJQsqaUBKTNV-1" source="nRXvXKjofSJJ8LNJtBbq-35" target="nRXvXKjofSJJ8LNJtBbq-66" edge="1">
          <mxGeometry relative="1" as="geometry" />
        </mxCell>
        <mxCell id="nRXvXKjofSJJ8LNJtBbq-88" style="edgeStyle=orthogonalEdgeStyle;rounded=0;orthogonalLoop=1;jettySize=auto;html=1;entryX=0.5;entryY=0;entryDx=0;entryDy=0;fillColor=#d5e8d4;strokeColor=#82b366;" parent="WIyWlLk6GJQsqaUBKTNV-1" source="nRXvXKjofSJJ8LNJtBbq-35" target="nRXvXKjofSJJ8LNJtBbq-87" edge="1">
          <mxGeometry relative="1" as="geometry" />
        </mxCell>
        <mxCell id="nRXvXKjofSJJ8LNJtBbq-35" value="Are you selling with the trend?" style="rounded=1;whiteSpace=wrap;html=1;fillColor=#d5e8d4;strokeColor=#82b366;" parent="WIyWlLk6GJQsqaUBKTNV-1" vertex="1">
          <mxGeometry x="120" y="650" width="110" height="50" as="geometry" />
        </mxCell>
        <mxCell id="nRXvXKjofSJJ8LNJtBbq-39" style="edgeStyle=orthogonalEdgeStyle;rounded=0;orthogonalLoop=1;jettySize=auto;html=1;entryX=1;entryY=0.5;entryDx=0;entryDy=0;fillColor=#d5e8d4;strokeColor=#82b366;" parent="WIyWlLk6GJQsqaUBKTNV-1" source="nRXvXKjofSJJ8LNJtBbq-36" target="nRXvXKjofSJJ8LNJtBbq-37" edge="1">
          <mxGeometry relative="1" as="geometry" />
        </mxCell>
        <mxCell id="nRXvXKjofSJJ8LNJtBbq-40" style="edgeStyle=orthogonalEdgeStyle;rounded=0;orthogonalLoop=1;jettySize=auto;html=1;entryX=0.5;entryY=0;entryDx=0;entryDy=0;fillColor=#d5e8d4;strokeColor=#82b366;" parent="WIyWlLk6GJQsqaUBKTNV-1" source="nRXvXKjofSJJ8LNJtBbq-36" target="nRXvXKjofSJJ8LNJtBbq-10" edge="1">
          <mxGeometry relative="1" as="geometry" />
        </mxCell>
        <mxCell id="nRXvXKjofSJJ8LNJtBbq-36" value="Is risk vs reward at least 2?" style="rounded=1;whiteSpace=wrap;html=1;fillColor=#d5e8d4;strokeColor=#82b366;" parent="WIyWlLk6GJQsqaUBKTNV-1" vertex="1">
          <mxGeometry x="875" y="120" width="90" height="40" as="geometry" />
        </mxCell>
        <mxCell id="nRXvXKjofSJJ8LNJtBbq-37" value="You cannot place a trade." style="rounded=1;whiteSpace=wrap;html=1;fillColor=#d5e8d4;strokeColor=#82b366;" parent="WIyWlLk6GJQsqaUBKTNV-1" vertex="1">
          <mxGeometry x="430" y="125" width="90" height="30" as="geometry" />
        </mxCell>
        <mxCell id="nRXvXKjofSJJ8LNJtBbq-41" value="yes" style="text;html=1;align=center;verticalAlign=middle;resizable=0;points=[];autosize=1;" parent="WIyWlLk6GJQsqaUBKTNV-1" vertex="1">
          <mxGeometry x="920" y="210" width="40" height="30" as="geometry" />
        </mxCell>
        <mxCell id="nRXvXKjofSJJ8LNJtBbq-44" style="edgeStyle=orthogonalEdgeStyle;rounded=0;orthogonalLoop=1;jettySize=auto;html=1;entryX=0.5;entryY=0;entryDx=0;entryDy=0;fillColor=#d5e8d4;strokeColor=#82b366;" parent="WIyWlLk6GJQsqaUBKTNV-1" source="nRXvXKjofSJJ8LNJtBbq-42" target="nRXvXKjofSJJ8LNJtBbq-36" edge="1">
          <mxGeometry relative="1" as="geometry" />
        </mxCell>
        <mxCell id="nRXvXKjofSJJ8LNJtBbq-47" style="edgeStyle=orthogonalEdgeStyle;rounded=0;orthogonalLoop=1;jettySize=auto;html=1;entryX=1;entryY=0.5;entryDx=0;entryDy=0;fillColor=#d5e8d4;strokeColor=#82b366;" parent="WIyWlLk6GJQsqaUBKTNV-1" source="nRXvXKjofSJJ8LNJtBbq-42" target="nRXvXKjofSJJ8LNJtBbq-46" edge="1">
          <mxGeometry relative="1" as="geometry" />
        </mxCell>
        <mxCell id="nRXvXKjofSJJ8LNJtBbq-42" value="Is risk below 13% of portfolio or max allowable loss?" style="rounded=1;whiteSpace=wrap;html=1;fillColor=#d5e8d4;strokeColor=#82b366;" parent="WIyWlLk6GJQsqaUBKTNV-1" vertex="1">
          <mxGeometry x="865" width="110" height="50" as="geometry" />
        </mxCell>
        <mxCell id="nRXvXKjofSJJ8LNJtBbq-45" value="yes" style="text;html=1;align=center;verticalAlign=middle;resizable=0;points=[];autosize=1;" parent="WIyWlLk6GJQsqaUBKTNV-1" vertex="1">
          <mxGeometry x="920" y="68" width="40" height="30" as="geometry" />
        </mxCell>
        <mxCell id="nRXvXKjofSJJ8LNJtBbq-46" value="You cannot place a trade." style="rounded=1;whiteSpace=wrap;html=1;fillColor=#d5e8d4;strokeColor=#82b366;" parent="WIyWlLk6GJQsqaUBKTNV-1" vertex="1">
          <mxGeometry x="430" y="10" width="90" height="30" as="geometry" />
        </mxCell>
        <mxCell id="nRXvXKjofSJJ8LNJtBbq-48" value="no" style="text;html=1;align=center;verticalAlign=middle;resizable=0;points=[];autosize=1;" parent="WIyWlLk6GJQsqaUBKTNV-1" vertex="1">
          <mxGeometry x="1920" y="635.8" width="40" height="30" as="geometry" />
        </mxCell>
        <mxCell id="nRXvXKjofSJJ8LNJtBbq-49" value="yes" style="text;html=1;align=center;verticalAlign=middle;resizable=0;points=[];autosize=1;" parent="WIyWlLk6GJQsqaUBKTNV-1" vertex="1">
          <mxGeometry x="690" y="443" width="40" height="30" as="geometry" />
        </mxCell>
        <mxCell id="nRXvXKjofSJJ8LNJtBbq-51" value="no" style="text;html=1;align=center;verticalAlign=middle;resizable=0;points=[];autosize=1;" parent="WIyWlLk6GJQsqaUBKTNV-1" vertex="1">
          <mxGeometry x="120" y="442.5" width="40" height="30" as="geometry" />
        </mxCell>
        <mxCell id="nRXvXKjofSJJ8LNJtBbq-53" value="You cannot place a trade." style="rounded=1;whiteSpace=wrap;html=1;fillColor=#d5e8d4;strokeColor=#82b366;" parent="WIyWlLk6GJQsqaUBKTNV-1" vertex="1">
          <mxGeometry x="965" y="832.86" width="90" height="30" as="geometry" />
        </mxCell>
        <mxCell id="nRXvXKjofSJJ8LNJtBbq-60" style="edgeStyle=orthogonalEdgeStyle;rounded=0;orthogonalLoop=1;jettySize=auto;html=1;entryX=0.422;entryY=-0.067;entryDx=0;entryDy=0;entryPerimeter=0;fillColor=#d5e8d4;strokeColor=#82b366;" parent="WIyWlLk6GJQsqaUBKTNV-1" source="nRXvXKjofSJJ8LNJtBbq-22" target="nRXvXKjofSJJ8LNJtBbq-26" edge="1">
          <mxGeometry relative="1" as="geometry" />
        </mxCell>
        <mxCell id="nRXvXKjofSJJ8LNJtBbq-62" value="no" style="text;html=1;align=center;verticalAlign=middle;resizable=0;points=[];autosize=1;" parent="WIyWlLk6GJQsqaUBKTNV-1" vertex="1">
          <mxGeometry x="965" y="653.75" width="40" height="30" as="geometry" />
        </mxCell>
        <mxCell id="nRXvXKjofSJJ8LNJtBbq-76" style="edgeStyle=orthogonalEdgeStyle;rounded=0;orthogonalLoop=1;jettySize=auto;html=1;entryX=0.5;entryY=0;entryDx=0;entryDy=0;fillColor=#d5e8d4;strokeColor=#82b366;" parent="WIyWlLk6GJQsqaUBKTNV-1" source="nRXvXKjofSJJ8LNJtBbq-66" target="nRXvXKjofSJJ8LNJtBbq-69" edge="1">
          <mxGeometry relative="1" as="geometry" />
        </mxCell>
        <mxCell id="nRXvXKjofSJJ8LNJtBbq-78" style="edgeStyle=orthogonalEdgeStyle;rounded=0;orthogonalLoop=1;jettySize=auto;html=1;entryX=0.5;entryY=0;entryDx=0;entryDy=0;fillColor=#d5e8d4;strokeColor=#82b366;" parent="WIyWlLk6GJQsqaUBKTNV-1" source="nRXvXKjofSJJ8LNJtBbq-66" target="nRXvXKjofSJJ8LNJtBbq-77" edge="1">
          <mxGeometry relative="1" as="geometry" />
        </mxCell>
        <mxCell id="nRXvXKjofSJJ8LNJtBbq-66" value="Is delta confirming a short thesis?" style="rounded=1;whiteSpace=wrap;html=1;fillColor=#d5e8d4;strokeColor=#82b366;" parent="WIyWlLk6GJQsqaUBKTNV-1" vertex="1">
          <mxGeometry x="-90" y="790" width="120" height="60" as="geometry" />
        </mxCell>
        <mxCell id="nRXvXKjofSJJ8LNJtBbq-68" value="yes" style="text;html=1;align=center;verticalAlign=middle;resizable=0;points=[];autosize=1;" parent="WIyWlLk6GJQsqaUBKTNV-1" vertex="1">
          <mxGeometry x="-70" y="637.5" width="40" height="30" as="geometry" />
        </mxCell>
        <mxCell id="nRXvXKjofSJJ8LNJtBbq-69" value="Place trade on pullback." style="rounded=1;whiteSpace=wrap;html=1;fillColor=#d5e8d4;strokeColor=#82b366;" parent="WIyWlLk6GJQsqaUBKTNV-1" vertex="1">
          <mxGeometry x="-240" y="940" width="120" height="60" as="geometry" />
        </mxCell>
        <mxCell id="nRXvXKjofSJJ8LNJtBbq-70" value="You cannot place a trade." style="rounded=1;whiteSpace=wrap;html=1;fillColor=#d5e8d4;strokeColor=#82b366;" parent="WIyWlLk6GJQsqaUBKTNV-1" vertex="1">
          <mxGeometry x="525" y="940" width="120" height="60" as="geometry" />
        </mxCell>
        <mxCell id="nRXvXKjofSJJ8LNJtBbq-71" style="edgeStyle=orthogonalEdgeStyle;rounded=0;orthogonalLoop=1;jettySize=auto;html=1;entryX=0.417;entryY=0;entryDx=0;entryDy=0;entryPerimeter=0;fillColor=#d5e8d4;strokeColor=#82b366;" parent="WIyWlLk6GJQsqaUBKTNV-1" source="nRXvXKjofSJJ8LNJtBbq-32" target="nRXvXKjofSJJ8LNJtBbq-70" edge="1">
          <mxGeometry relative="1" as="geometry" />
        </mxCell>
        <mxCell id="nRXvXKjofSJJ8LNJtBbq-73" value="Place the trade on pullback." style="rounded=1;whiteSpace=wrap;html=1;fillColor=#d5e8d4;strokeColor=#82b366;" parent="WIyWlLk6GJQsqaUBKTNV-1" vertex="1">
          <mxGeometry x="745" y="940" width="120" height="60" as="geometry" />
        </mxCell>
        <mxCell id="nRXvXKjofSJJ8LNJtBbq-75" style="edgeStyle=orthogonalEdgeStyle;rounded=0;orthogonalLoop=1;jettySize=auto;html=1;entryX=0.558;entryY=0;entryDx=0;entryDy=0;entryPerimeter=0;fillColor=#d5e8d4;strokeColor=#82b366;" parent="WIyWlLk6GJQsqaUBKTNV-1" source="nRXvXKjofSJJ8LNJtBbq-32" target="nRXvXKjofSJJ8LNJtBbq-73" edge="1">
          <mxGeometry relative="1" as="geometry" />
        </mxCell>
        <mxCell id="nRXvXKjofSJJ8LNJtBbq-77" value="You cannot place a trade." style="rounded=1;whiteSpace=wrap;html=1;fillColor=#d5e8d4;strokeColor=#82b366;" parent="WIyWlLk6GJQsqaUBKTNV-1" vertex="1">
          <mxGeometry x="110" y="940" width="120" height="60" as="geometry" />
        </mxCell>
        <mxCell id="nRXvXKjofSJJ8LNJtBbq-79" value="no" style="text;html=1;align=center;verticalAlign=middle;resizable=0;points=[];autosize=1;" parent="WIyWlLk6GJQsqaUBKTNV-1" vertex="1">
          <mxGeometry x="540" y="785.87" width="40" height="30" as="geometry" />
        </mxCell>
        <mxCell id="nRXvXKjofSJJ8LNJtBbq-80" value="yes" style="text;html=1;align=center;verticalAlign=middle;resizable=0;points=[];autosize=1;" parent="WIyWlLk6GJQsqaUBKTNV-1" vertex="1">
          <mxGeometry x="810" y="790" width="40" height="30" as="geometry" />
        </mxCell>
        <mxCell id="nRXvXKjofSJJ8LNJtBbq-81" value="yes" style="text;html=1;align=center;verticalAlign=middle;resizable=0;points=[];autosize=1;" parent="WIyWlLk6GJQsqaUBKTNV-1" vertex="1">
          <mxGeometry x="1230" y="654.5" width="40" height="30" as="geometry" />
        </mxCell>
        <mxCell id="nRXvXKjofSJJ8LNJtBbq-82" value="no" style="text;html=1;align=center;verticalAlign=middle;resizable=0;points=[];autosize=1;" parent="WIyWlLk6GJQsqaUBKTNV-1" vertex="1">
          <mxGeometry x="665" y="30" width="40" height="30" as="geometry" />
        </mxCell>
        <mxCell id="nRXvXKjofSJJ8LNJtBbq-83" value="no" style="text;html=1;align=center;verticalAlign=middle;resizable=0;points=[];autosize=1;" parent="WIyWlLk6GJQsqaUBKTNV-1" vertex="1">
          <mxGeometry x="665" y="140" width="40" height="30" as="geometry" />
        </mxCell>
        <mxCell id="nRXvXKjofSJJ8LNJtBbq-87" value="You cannot place a trade." style="rounded=1;whiteSpace=wrap;html=1;fillColor=#d5e8d4;strokeColor=#82b366;" parent="WIyWlLk6GJQsqaUBKTNV-1" vertex="1">
          <mxGeometry x="370" y="795" width="120" height="60" as="geometry" />
        </mxCell>
        <mxCell id="nRXvXKjofSJJ8LNJtBbq-89" value="no" style="text;html=1;align=center;verticalAlign=middle;resizable=0;points=[];autosize=1;" parent="WIyWlLk6GJQsqaUBKTNV-1" vertex="1">
          <mxGeometry x="430" y="645.37" width="40" height="30" as="geometry" />
        </mxCell>
        <mxCell id="nRXvXKjofSJJ8LNJtBbq-90" value="yes" style="text;html=1;align=center;verticalAlign=middle;resizable=0;points=[];autosize=1;" parent="WIyWlLk6GJQsqaUBKTNV-1" vertex="1">
          <mxGeometry x="-220" y="790" width="40" height="30" as="geometry" />
        </mxCell>
        <mxCell id="nRXvXKjofSJJ8LNJtBbq-91" value="no" style="text;html=1;align=center;verticalAlign=middle;resizable=0;points=[];autosize=1;" parent="WIyWlLk6GJQsqaUBKTNV-1" vertex="1">
          <mxGeometry x="170" y="790" width="40" height="30" as="geometry" />
        </mxCell>
        <mxCell id="nRXvXKjofSJJ8LNJtBbq-102" value="Place trade at body of candlestick." style="rounded=1;whiteSpace=wrap;html=1;fillColor=#d5e8d4;strokeColor=#82b366;" parent="WIyWlLk6GJQsqaUBKTNV-1" vertex="1">
          <mxGeometry x="1480" y="940" width="120" height="60" as="geometry" />
        </mxCell>
        <mxCell id="nRXvXKjofSJJ8LNJtBbq-104" value="yes" style="text;html=1;align=center;verticalAlign=middle;resizable=0;points=[];autosize=1;" parent="WIyWlLk6GJQsqaUBKTNV-1" vertex="1">
          <mxGeometry x="1500" y="810" width="40" height="30" as="geometry" />
        </mxCell>
        <mxCell id="nRXvXKjofSJJ8LNJtBbq-106" style="edgeStyle=orthogonalEdgeStyle;rounded=0;orthogonalLoop=1;jettySize=auto;html=1;entryX=0.5;entryY=0;entryDx=0;entryDy=0;fillColor=#d5e8d4;strokeColor=#82b366;" parent="WIyWlLk6GJQsqaUBKTNV-1" source="nRXvXKjofSJJ8LNJtBbq-105" target="nRXvXKjofSJJ8LNJtBbq-29" edge="1">
          <mxGeometry relative="1" as="geometry" />
        </mxCell>
        <mxCell id="nRXvXKjofSJJ8LNJtBbq-109" style="edgeStyle=orthogonalEdgeStyle;rounded=0;orthogonalLoop=1;jettySize=auto;html=1;fillColor=#d5e8d4;strokeColor=#82b366;" parent="WIyWlLk6GJQsqaUBKTNV-1" source="nRXvXKjofSJJ8LNJtBbq-105" target="nRXvXKjofSJJ8LNJtBbq-108" edge="1">
          <mxGeometry relative="1" as="geometry" />
        </mxCell>
        <mxCell id="nRXvXKjofSJJ8LNJtBbq-105" value="Does delta confirm this bias?" style="rounded=1;whiteSpace=wrap;html=1;fillColor=#d5e8d4;strokeColor=#82b366;" parent="WIyWlLk6GJQsqaUBKTNV-1" vertex="1">
          <mxGeometry x="2055" y="820.87" width="100" height="44.13" as="geometry" />
        </mxCell>
        <mxCell id="nRXvXKjofSJJ8LNJtBbq-107" value="no" style="text;html=1;align=center;verticalAlign=middle;resizable=0;points=[];autosize=1;" parent="WIyWlLk6GJQsqaUBKTNV-1" vertex="1">
          <mxGeometry x="2265" y="815" width="40" height="30" as="geometry" />
        </mxCell>
        <mxCell id="nRXvXKjofSJJ8LNJtBbq-108" value="Place trade below extreme wick." style="rounded=1;whiteSpace=wrap;html=1;fillColor=#d5e8d4;strokeColor=#82b366;" parent="WIyWlLk6GJQsqaUBKTNV-1" vertex="1">
          <mxGeometry x="1920" y="945" width="120" height="60" as="geometry" />
        </mxCell>
        <mxCell id="nRXvXKjofSJJ8LNJtBbq-110" value="yes" style="text;html=1;align=center;verticalAlign=middle;resizable=0;points=[];autosize=1;" parent="WIyWlLk6GJQsqaUBKTNV-1" vertex="1">
          <mxGeometry x="1945" y="810" width="40" height="30" as="geometry" />
        </mxCell>
        <mxCell id="nRXvXKjofSJJ8LNJtBbq-112" value="You cannot place a trade." style="rounded=1;whiteSpace=wrap;html=1;fillColor=#d5e8d4;strokeColor=#82b366;" parent="WIyWlLk6GJQsqaUBKTNV-1" vertex="1">
          <mxGeometry x="1760" y="945" width="120" height="60" as="geometry" />
        </mxCell>
        <mxCell id="nRXvXKjofSJJ8LNJtBbq-116" value="" style="edgeStyle=orthogonalEdgeStyle;rounded=0;orthogonalLoop=1;jettySize=auto;html=1;entryX=0.5;entryY=0;entryDx=0;entryDy=0;fillColor=#d5e8d4;strokeColor=#82b366;" parent="WIyWlLk6GJQsqaUBKTNV-1" source="nRXvXKjofSJJ8LNJtBbq-19" target="nRXvXKjofSJJ8LNJtBbq-115" edge="1">
          <mxGeometry relative="1" as="geometry">
            <mxPoint x="1160" y="680" as="sourcePoint" />
            <mxPoint x="1230" y="950" as="targetPoint" />
          </mxGeometry>
        </mxCell>
        <mxCell id="nRXvXKjofSJJ8LNJtBbq-121" style="edgeStyle=orthogonalEdgeStyle;rounded=0;orthogonalLoop=1;jettySize=auto;html=1;entryX=0.5;entryY=0;entryDx=0;entryDy=0;fillColor=#d5e8d4;strokeColor=#82b366;" parent="WIyWlLk6GJQsqaUBKTNV-1" source="nRXvXKjofSJJ8LNJtBbq-115" target="nRXvXKjofSJJ8LNJtBbq-120" edge="1">
          <mxGeometry relative="1" as="geometry" />
        </mxCell>
        <mxCell id="nRXvXKjofSJJ8LNJtBbq-134" style="edgeStyle=orthogonalEdgeStyle;rounded=0;orthogonalLoop=1;jettySize=auto;html=1;fillColor=#d5e8d4;strokeColor=#82b366;" parent="WIyWlLk6GJQsqaUBKTNV-1" source="nRXvXKjofSJJ8LNJtBbq-115" target="nRXvXKjofSJJ8LNJtBbq-133" edge="1">
          <mxGeometry relative="1" as="geometry" />
        </mxCell>
        <mxCell id="nRXvXKjofSJJ8LNJtBbq-115" value="Is there a failed breakout?" style="rounded=1;whiteSpace=wrap;html=1;fillColor=#d5e8d4;strokeColor=#82b366;" parent="WIyWlLk6GJQsqaUBKTNV-1" vertex="1">
          <mxGeometry x="1180" y="830" width="90" height="40" as="geometry" />
        </mxCell>
        <mxCell id="nRXvXKjofSJJ8LNJtBbq-126" style="edgeStyle=orthogonalEdgeStyle;rounded=0;orthogonalLoop=1;jettySize=auto;html=1;entryX=0.5;entryY=0;entryDx=0;entryDy=0;fillColor=#d5e8d4;strokeColor=#82b366;" parent="WIyWlLk6GJQsqaUBKTNV-1" source="nRXvXKjofSJJ8LNJtBbq-120" target="nRXvXKjofSJJ8LNJtBbq-125" edge="1">
          <mxGeometry relative="1" as="geometry" />
        </mxCell>
        <mxCell id="nRXvXKjofSJJ8LNJtBbq-136" style="edgeStyle=orthogonalEdgeStyle;rounded=0;orthogonalLoop=1;jettySize=auto;html=1;fillColor=#d5e8d4;strokeColor=#82b366;" parent="WIyWlLk6GJQsqaUBKTNV-1" source="nRXvXKjofSJJ8LNJtBbq-120" edge="1">
          <mxGeometry relative="1" as="geometry">
            <mxPoint x="1230" y="1169.57" as="targetPoint" />
          </mxGeometry>
        </mxCell>
        <mxCell id="nRXvXKjofSJJ8LNJtBbq-120" value="Does delta confirm this bias?" style="rounded=1;whiteSpace=wrap;html=1;fillColor=#d5e8d4;strokeColor=#82b366;" parent="WIyWlLk6GJQsqaUBKTNV-1" vertex="1">
          <mxGeometry x="1055" y="1050" width="120" height="60" as="geometry" />
        </mxCell>
        <mxCell id="nRXvXKjofSJJ8LNJtBbq-123" value="no" style="text;html=1;align=center;verticalAlign=middle;resizable=0;points=[];autosize=1;" parent="WIyWlLk6GJQsqaUBKTNV-1" vertex="1">
          <mxGeometry x="1820" y="815" width="40" height="30" as="geometry" />
        </mxCell>
        <mxCell id="nRXvXKjofSJJ8LNJtBbq-124" value="no" style="text;html=1;align=center;verticalAlign=middle;resizable=0;points=[];autosize=1;" parent="WIyWlLk6GJQsqaUBKTNV-1" vertex="1">
          <mxGeometry x="1080" y="825" width="40" height="30" as="geometry" />
        </mxCell>
        <mxCell id="nRXvXKjofSJJ8LNJtBbq-125" value="Place trade just above longest wick" style="rounded=1;whiteSpace=wrap;html=1;fillColor=#d5e8d4;strokeColor=#82b366;" parent="WIyWlLk6GJQsqaUBKTNV-1" vertex="1">
          <mxGeometry x="935" y="1189.57" width="120" height="60" as="geometry" />
        </mxCell>
        <mxCell id="nRXvXKjofSJJ8LNJtBbq-127" value="yes" style="text;html=1;align=center;verticalAlign=middle;resizable=0;points=[];autosize=1;" parent="WIyWlLk6GJQsqaUBKTNV-1" vertex="1">
          <mxGeometry x="960" y="1119.57" width="40" height="30" as="geometry" />
        </mxCell>
        <mxCell id="nRXvXKjofSJJ8LNJtBbq-128" value="You cannot place a trade." style="rounded=1;whiteSpace=wrap;html=1;fillColor=#d5e8d4;strokeColor=#82b366;" parent="WIyWlLk6GJQsqaUBKTNV-1" vertex="1">
          <mxGeometry x="1165" y="1189.57" width="120" height="60" as="geometry" />
        </mxCell>
        <mxCell id="nRXvXKjofSJJ8LNJtBbq-130" value="no" style="text;html=1;align=center;verticalAlign=middle;resizable=0;points=[];autosize=1;" parent="WIyWlLk6GJQsqaUBKTNV-1" vertex="1">
          <mxGeometry x="1210" y="1050" width="40" height="30" as="geometry" />
        </mxCell>
        <mxCell id="nRXvXKjofSJJ8LNJtBbq-139" style="edgeStyle=orthogonalEdgeStyle;rounded=0;orthogonalLoop=1;jettySize=auto;html=1;fillColor=#d5e8d4;strokeColor=#82b366;" parent="WIyWlLk6GJQsqaUBKTNV-1" source="nRXvXKjofSJJ8LNJtBbq-133" target="nRXvXKjofSJJ8LNJtBbq-137" edge="1">
          <mxGeometry relative="1" as="geometry" />
        </mxCell>
        <mxCell id="nRXvXKjofSJJ8LNJtBbq-133" value="Does delta confirm this bias?" style="rounded=1;whiteSpace=wrap;html=1;fillColor=#d5e8d4;strokeColor=#82b366;" parent="WIyWlLk6GJQsqaUBKTNV-1" vertex="1">
          <mxGeometry x="1300" y="1050" width="120" height="60" as="geometry" />
        </mxCell>
        <mxCell id="nRXvXKjofSJJ8LNJtBbq-135" style="edgeStyle=orthogonalEdgeStyle;rounded=0;orthogonalLoop=1;jettySize=auto;html=1;entryX=0.542;entryY=0.167;entryDx=0;entryDy=0;entryPerimeter=0;fillColor=#d5e8d4;strokeColor=#82b366;" parent="WIyWlLk6GJQsqaUBKTNV-1" source="nRXvXKjofSJJ8LNJtBbq-133" target="nRXvXKjofSJJ8LNJtBbq-128" edge="1">
          <mxGeometry relative="1" as="geometry" />
        </mxCell>
        <mxCell id="nRXvXKjofSJJ8LNJtBbq-137" value="Place trade at body of candlestick" style="rounded=1;whiteSpace=wrap;html=1;fillColor=#d5e8d4;strokeColor=#82b366;" parent="WIyWlLk6GJQsqaUBKTNV-1" vertex="1">
          <mxGeometry x="1380" y="1189.57" width="120" height="60" as="geometry" />
        </mxCell>
        <mxCell id="nRXvXKjofSJJ8LNJtBbq-138" value="yes" style="text;html=1;align=center;verticalAlign=middle;resizable=0;points=[];autosize=1;" parent="WIyWlLk6GJQsqaUBKTNV-1" vertex="1">
          <mxGeometry x="1355" y="825" width="40" height="30" as="geometry" />
        </mxCell>
        <mxCell id="nRXvXKjofSJJ8LNJtBbq-140" value="yes" style="text;html=1;align=center;verticalAlign=middle;resizable=0;points=[];autosize=1;" parent="WIyWlLk6GJQsqaUBKTNV-1" vertex="1">
          <mxGeometry x="1400" y="1119.57" width="40" height="30" as="geometry" />
        </mxCell>
      </root>
    </mxGraphModel>
  </diagram>
</mxfile>
